<svg xmlns="http://www.w3.org/2000/svg" width="640" height="427" viewBox="0 0 640 427">
<g>
<path d="M 603.04 425.65 C601.80,426.79 604.62,427.00 620.79,427.00 L 443.04 427.00 L 441.07 423.25 C439.98,421.19 438.15,418.38 437.00,417.00 C435.86,415.62 433.25,412.19 431.21,409.37 C429.17,406.54 420.72,395.29 412.44,384.37 C404.16,373.44 392.44,357.98 386.40,350.00 C374.68,334.53 340.33,289.50 338.33,287.00 C336.40,284.58 315.71,257.07 313.24,253.64 C312.00,251.91 310.43,249.81 309.74,248.97 C307.68,246.43 291.09,224.58 277.39,206.36 C266.95,192.48 263.86,187.57 261.14,180.60 C257.53,171.33 257.50,170.08 260.64,159.00 C262.76,151.54 263.83,149.50 268.44,144.12 C270.62,141.58 271.19,140.59 269.71,141.92 C268.22,143.25 266.78,144.12 266.51,143.84 C265.87,143.21 282.05,127.00 283.33,127.00 C283.86,127.00 286.35,125.31 288.87,123.25 C291.39,121.19 295.12,118.38 297.16,117.00 C299.21,115.62 303.95,111.95 307.69,108.84 C311.44,105.72 316.61,101.67 319.20,99.84 C321.78,98.00 338.88,85.23 357.20,71.45 C375.51,57.67 391.67,45.52 393.09,44.45 C394.52,43.38 399.02,39.99 403.09,36.93 C429.64,16.97 439.81,13.55 454.92,19.47 C464.66,23.28 468.98,26.23 475.75,33.65 C484.93,43.72 486.88,46.12 498.40,61.50 C513.55,81.75 522.20,92.30 524.62,93.50 C528.10,95.23 550.23,124.00 549.69,126.09 C549.43,127.09 549.52,128.04 549.89,128.20 C550.26,128.37 554.59,133.68 559.52,140.00 C564.44,146.32 568.71,151.73 568.99,152.00 C569.28,152.27 570.86,154.24 572.51,156.37 C574.15,158.50 576.62,161.69 578.00,163.47 C579.38,165.24 584.10,171.19 588.50,176.68 C592.90,182.18 597.62,188.17 599.00,189.99 C600.38,191.82 606.90,200.05 613.50,208.29 C620.10,216.52 626.90,225.11 628.61,227.38 C630.32,229.65 633.56,233.52 635.82,236.00 L 639.92 240.50 L 640.00 0.00 L 640.00 412.50 C640.00,404.52 639.63,398.00 639.19,398.00 C638.74,398.00 637.50,398.81 636.44,399.79 C635.37,400.78 632.25,403.11 629.50,404.98 C624.89,408.11 606.43,422.53 603.04,425.65 ZM 338.32 246.99 C341.51,248.28 342.75,248.18 346.30,246.35 C351.88,243.47 369.66,229.04 370.85,226.42 C373.30,221.06 372.78,219.76 363.04,206.92 C356.21,197.90 356.16,197.80 356.69,192.67 C357.12,188.37 356.84,187.03 355.03,184.75 C353.24,182.48 352.07,182.00 348.38,182.00 C342.66,182.00 339.01,185.46 338.98,190.90 C338.98,192.88 338.64,194.95 338.23,195.50 C337.83,196.05 333.15,199.80 327.83,203.82 C322.51,207.85 317.90,211.82 317.58,212.65 C316.08,216.57 317.13,220.97 320.93,226.64 C326.84,235.45 335.86,246.00 338.32,246.99 ZM 467.52 82.75 C469.48,85.51 470.05,85.53 473.33,82.96 C474.76,81.83 476.28,80.93 476.71,80.96 C477.15,80.98 478.76,80.07 480.31,78.93 C482.52,77.30 483.05,76.19 482.81,73.74 C482.54,71.03 482.06,70.57 479.22,70.25 C476.82,69.98 475.14,70.55 473.02,72.33 C471.42,73.68 470.36,75.03 470.67,75.34 C470.98,75.65 470.04,76.93 468.58,78.20 C466.08,80.37 466.02,80.62 467.52,82.75 ZM 331.41 287.27 C334.65,291.54 337.10,295.23 336.86,295.47 C336.62,295.71 335.88,295.03 335.20,293.95 C334.53,292.88 333.09,292.00 331.99,292.00 C330.90,292.00 330.00,291.62 330.00,291.16 C330.00,290.69 324.85,283.40 318.55,274.94 C312.25,266.48 307.34,259.32 307.63,259.03 C307.93,258.74 309.37,259.90 310.83,261.62 C316.44,268.17 321.56,274.41 322.94,276.42 C323.74,277.56 324.64,278.73 324.96,279.00 C325.27,279.27 328.18,282.99 331.41,287.27 ZM 362.48 329.25 C363.83,331.38 363.92,331.99 362.87,331.96 C361.54,331.91 337.73,300.93 338.46,300.20 C339.48,299.18 343.15,302.53 345.90,306.98 C347.59,309.74 349.41,312.00 349.93,312.00 C350.45,312.00 351.88,313.80 353.12,316.00 C354.36,318.20 355.74,320.00 356.18,320.00 C356.63,320.00 357.00,320.53 357.00,321.19 C357.00,321.84 357.84,323.30 358.87,324.44 C359.89,325.57 361.52,327.74 362.48,329.25 ZM 449.96 95.92 C451.61,99.01 454.62,98.54 455.85,95.00 C456.43,93.35 456.81,91.97 456.70,91.93 C456.59,91.90 455.02,91.67 453.22,91.44 C449.45,90.95 448.21,92.65 449.96,95.92 ZM 291.00 236.43 C291.00,236.74 290.59,237.00 290.08,237.00 C289.10,237.00 283.00,229.68 283.00,228.50 C283.00,228.11 281.86,226.43 280.46,224.77 C279.06,223.11 278.21,221.47 278.56,221.12 C278.91,220.78 279.94,221.53 280.85,222.79 C281.76,224.06 284.41,227.51 286.75,230.48 C289.09,233.44 291.00,236.12 291.00,236.43 ZM 347.10 257.85 C347.70,259.58 348.61,260.74 349.11,260.43 C349.62,260.12 349.80,259.49 349.52,259.04 C349.24,258.58 350.09,257.94 351.41,257.61 C355.21,256.66 353.74,253.52 349.45,253.42 C345.60,253.34 345.56,253.43 347.10,257.85 ZM 600.62 416.49 C602.22,417.67 602.71,417.67 603.91,416.49 C605.07,415.35 605.10,414.82 604.04,413.55 C603.33,412.70 602.12,412.00 601.35,412.00 C599.05,412.00 598.57,414.96 600.62,416.49 ZM 628.60 393.41 C629.32,395.29 631.13,395.47 632.78,393.82 C633.64,392.96 633.66,392.29 632.85,391.32 C630.65,388.67 627.40,390.27 628.60,393.41 ZM 620.21 401.81 C621.88,403.48 623.44,402.77 623.82,400.17 C624.08,398.42 623.64,398.00 621.57,398.00 C618.83,398.00 618.19,399.79 620.21,401.81 ZM 590.70 424.37 C592.03,425.69 594.50,424.47 594.50,422.49 C594.50,421.19 593.72,420.39 592.25,420.18 C590.59,419.95 590.00,420.36 590.00,421.76 C590.00,422.81 590.32,423.98 590.70,424.37 ZM 610.21 408.81 C611.85,410.45 613.50,409.76 613.50,407.42 C613.50,406.19 612.69,405.38 611.25,405.18 C608.77,404.83 608.21,406.81 610.21,408.81 ZM 383.75 146.61 C386.98,149.06 388.06,147.98 385.61,144.75 C384.88,143.79 383.77,143.00 383.14,143.00 C381.42,143.00 381.77,145.11 383.75,146.61 ZM 461.00 87.50 C461.00,88.66 461.73,89.04 463.53,88.82 C464.92,88.64 466.06,88.05 466.06,87.50 C466.06,86.95 464.92,86.36 463.53,86.18 C461.73,85.96 461.00,86.34 461.00,87.50 ZM 316.67 138.33 C317.82,139.49 318.00,139.10 318.00,135.44 C318.00,133.32 317.60,132.13 317.00,132.50 C315.88,133.19 315.64,137.31 316.67,138.33 ZM 638.53 385.71 C639.27,387.42 639.33,387.42 639.74,385.67 C640.21,383.70 639.39,382.27 638.38,383.29 C638.03,383.63 638.10,384.72 638.53,385.71 ZM 318.00 122.00 C318.00,122.55 318.45,123.00 319.00,123.00 C319.55,123.00 320.00,122.55 320.00,122.00 C320.00,121.45 319.55,121.00 319.00,121.00 C318.45,121.00 318.00,121.45 318.00,122.00 Z" fill="rgb(1,1,1)"/>
<path d="M 448.53 17.49 C453.08,17.94 457.02,18.80 459.54,19.92 C463.29,21.58 464.96,21.80 468.21,21.06 L 472.24 20.16 L 471.68 23.56 C471.22,26.40 471.57,27.30 473.80,29.06 C475.95,30.75 477.29,31.03 480.70,30.52 C485.87,29.75 488.46,31.01 489.84,34.98 C490.78,37.67 491.34,38.00 494.96,38.00 L 499.02 38.00 L 498.43 41.75 C497.93,44.91 498.32,46.13 500.91,49.50 C502.60,51.70 505.21,55.30 506.70,57.50 C508.19,59.70 511.27,63.75 513.55,66.50 C515.83,69.25 521.44,76.22 526.03,82.00 C530.62,87.78 536.21,94.61 538.44,97.18 C540.67,99.76 543.98,103.81 545.79,106.18 C551.72,113.95 556.76,120.29 568.72,135.00 C575.20,142.98 583.19,152.88 586.48,157.00 C589.77,161.13 595.64,168.10 599.53,172.50 C603.42,176.90 610.07,184.77 614.31,190.00 C625.74,204.10 637.37,217.29 638.77,217.76 C639.50,218.00 639.83,205.05 639.94,162.13 L 639.92 240.50 L 635.82 236.00 C633.56,233.52 630.32,229.65 628.61,227.38 C626.90,225.11 620.10,216.52 613.50,208.29 C606.90,200.05 600.38,191.82 599.00,189.99 C597.62,188.17 592.90,182.18 588.50,176.68 C584.10,171.19 579.38,165.24 578.00,163.47 C576.62,161.69 574.15,158.50 572.51,156.37 C570.86,154.24 569.28,152.27 568.99,152.00 C568.71,151.73 564.44,146.32 559.52,140.00 C554.59,133.68 550.26,128.37 549.89,128.20 C549.52,128.04 549.43,127.09 549.69,126.09 C550.23,124.00 528.10,95.23 524.62,93.50 C522.20,92.30 513.55,81.75 498.40,61.50 C486.88,46.12 484.93,43.72 475.75,33.65 C468.98,26.23 464.66,23.28 454.92,19.47 C452.70,18.60 450.60,17.93 448.53,17.49 ZM 331.41 287.27 C328.18,282.99 325.27,279.27 324.96,279.00 C324.64,278.73 323.74,277.56 322.94,276.42 C321.56,274.41 316.44,268.17 310.83,261.62 C309.37,259.90 307.93,258.74 307.63,259.03 C307.38,259.29 311.12,264.82 316.29,271.88 C311.91,265.90 308.02,260.32 307.02,258.50 C303.72,252.51 292.67,238.09 291.34,238.04 C290.65,238.02 289.17,236.64 287.42,234.64 C288.64,235.98 289.72,237.00 290.08,237.00 C290.59,237.00 291.00,236.74 291.00,236.43 C291.00,236.12 289.09,233.44 286.75,230.48 C284.41,227.51 281.76,224.06 280.85,222.79 C279.94,221.53 278.91,220.78 278.56,221.12 C278.45,221.23 278.46,221.46 278.56,221.77 C278.20,220.99 278.00,220.37 278.00,219.96 C278.00,219.24 275.40,215.47 272.22,211.58 C269.04,207.68 264.91,202.36 263.05,199.75 C261.19,197.14 259.29,195.00 258.83,195.00 C258.37,195.00 258.00,194.44 258.00,193.75 C257.99,193.06 256.88,189.80 255.52,186.50 C254.16,183.20 253.05,179.15 253.05,177.50 C253.05,175.01 253.53,175.60 255.84,181.03 C258.39,187.01 265.21,198.11 263.50,193.50 C263.09,192.40 262.66,190.37 262.55,188.98 C262.44,187.60 261.58,185.29 260.64,183.86 C258.75,180.97 257.97,176.34 258.37,170.81 C258.50,173.54 259.40,176.14 261.14,180.60 C263.86,187.57 266.95,192.48 277.39,206.36 C291.09,224.58 307.68,246.43 309.74,248.97 C310.43,249.81 312.00,251.91 313.24,253.64 C315.71,257.07 336.40,284.58 338.33,287.00 C340.33,289.50 374.68,334.53 386.40,350.00 C392.44,357.98 404.16,373.44 412.44,384.37 C420.72,395.29 429.17,406.54 431.21,409.37 C433.25,412.19 435.86,415.62 437.00,417.00 C438.15,418.38 439.98,421.19 441.07,423.25 L 443.04 427.00 L 217.56 427.00 C391.34,427.00 434.97,426.75 434.37,425.75 C433.68,424.60 422.61,409.92 385.16,360.50 C377.24,350.05 369.35,339.61 367.63,337.31 C365.91,335.00 363.97,332.98 363.31,332.81 C362.68,332.64 358.43,327.41 353.55,321.05 C358.24,327.01 362.34,331.94 362.87,331.96 C363.92,331.99 363.83,331.38 362.48,329.25 C361.52,327.74 359.89,325.57 358.87,324.44 C357.84,323.30 357.00,321.84 357.00,321.19 C357.00,320.53 356.63,320.00 356.18,320.00 C355.74,320.00 354.36,318.20 353.12,316.00 C351.88,313.80 350.45,312.00 349.93,312.00 C349.41,312.00 347.59,309.74 345.90,306.98 C343.15,302.53 339.48,299.18 338.46,300.20 C338.46,300.21 338.45,300.22 338.45,300.23 C337.98,299.49 337.65,298.92 337.49,298.55 C335.57,294.30 333.55,292.00 331.75,292.00 C331.63,292.00 331.51,291.99 331.38,291.96 C331.58,291.99 331.78,292.00 331.99,292.00 C333.09,292.00 334.53,292.88 335.20,293.95 C335.88,295.03 336.62,295.71 336.86,295.47 C337.10,295.23 334.65,291.54 331.41,287.27 ZM 603.04 425.65 C606.43,422.53 624.89,408.11 629.50,404.98 C632.25,403.11 635.37,400.78 636.44,399.79 C637.50,398.81 638.74,398.00 639.19,398.00 C639.63,398.00 640.00,404.52 640.00,412.50 L 640.00 419.50 C640.00,415.38 639.76,412.00 639.46,412.00 C637.28,412.00 624.00,423.74 624.00,425.66 C624.00,426.67 625.99,427.00 632.00,427.00 L 620.79 427.00 C604.62,427.00 601.80,426.79 603.04,425.65 ZM 467.52 82.75 C466.02,80.62 466.08,80.37 468.58,78.20 C470.04,76.93 470.98,75.65 470.67,75.34 C470.36,75.03 471.42,73.68 473.02,72.33 C475.14,70.55 476.82,69.98 479.22,70.25 C482.06,70.57 482.54,71.03 482.81,73.74 C483.05,76.19 482.52,77.30 480.31,78.93 C478.76,80.07 477.15,80.98 476.71,80.96 C476.28,80.93 474.76,81.83 473.33,82.96 C470.05,85.53 469.48,85.51 467.52,82.75 ZM 259.73 162.27 C260.51,158.59 260.94,155.61 260.71,155.38 C260.46,155.12 259.26,156.85 258.05,159.21 C255.92,163.38 255.87,163.41 256.53,160.12 C257.01,157.77 256.88,156.96 256.11,157.43 C255.50,157.81 255.00,157.53 255.00,156.81 C255.01,154.70 258.98,148.78 262.93,145.00 C267.85,140.28 274.74,134.12 279.18,130.36 C274.03,135.15 266.06,143.39 266.51,143.84 C266.78,144.12 268.22,143.25 269.71,141.92 C271.19,140.59 270.62,141.58 268.44,144.12 C263.83,149.50 262.76,151.54 260.64,159.00 C260.30,160.20 260.00,161.28 259.73,162.27 ZM 467.52 82.75 C469.67,85.79 470.41,85.63 475.29,81.05 C478.82,77.73 479.32,76.81 478.39,75.30 C476.63,72.44 474.80,72.77 470.22,76.76 C466.10,80.36 466.00,80.59 467.52,82.75 ZM 316.67 138.33 C315.64,137.31 315.88,133.19 317.00,132.50 C317.60,132.13 318.00,133.32 318.00,135.44 C318.00,139.10 317.82,139.49 316.67,138.33 ZM 258.98 182.47 C260.08,184.61 260.84,186.49 260.68,186.65 C260.19,187.14 257.00,181.27 257.00,179.88 C257.00,179.17 257.89,180.33 258.98,182.47 ZM 318.00 122.00 C318.00,121.45 318.45,121.00 319.00,121.00 C319.55,121.00 320.00,121.45 320.00,122.00 C320.00,122.55 319.55,123.00 319.00,123.00 C318.45,123.00 318.00,122.55 318.00,122.00 ZM 438.59 17.17 C429.66,18.57 419.51,24.59 403.09,36.93 C417.05,26.43 423.53,22.33 430.51,19.53 C434.09,18.10 436.10,17.41 438.59,17.17 ZM 279.23 223.10 C279.56,223.62 279.97,224.19 280.46,224.77 C281.86,226.43 283.00,228.11 283.00,228.50 C283.00,228.77 283.32,229.36 283.83,230.12 C282.03,227.68 280.32,225.11 279.23,223.10 ZM 329.59 290.38 C329.78,290.69 329.91,290.91 329.97,291.04 C329.82,290.86 329.70,290.66 329.62,290.45 C329.61,290.43 329.60,290.41 329.59,290.38 Z" fill="rgb(57,47,46)"/>
<path d="M 448.53 17.49 C447.74,17.32 446.95,17.18 446.17,17.08 C446.56,17.08 446.97,17.08 447.38,17.08 C453.20,17.12 458.40,16.87 458.95,16.53 C459.49,16.19 461.37,16.66 463.12,17.56 C466.42,19.27 471.04,19.06 477.75,16.89 C480.20,16.10 481.00,15.27 481.00,13.48 C481.00,11.15 482.61,9.28 483.69,10.35 C484.86,11.53 482.79,16.22 479.47,19.90 C477.56,22.01 476.00,24.20 476.00,24.75 C476.00,25.30 477.40,26.34 479.10,27.04 C481.52,28.04 482.92,28.07 485.42,27.16 C490.70,25.26 492.79,25.70 494.54,29.08 C496.02,31.94 496.46,32.13 500.82,31.83 C505.06,31.53 505.53,31.72 505.83,33.81 C506.01,35.08 506.81,36.38 507.62,36.68 C508.87,37.17 508.84,37.52 507.40,39.11 C505.82,40.86 505.86,41.14 508.11,43.91 C509.42,45.52 520.20,58.92 532.05,73.67 C543.91,88.43 556.28,103.78 559.55,107.79 C566.67,116.53 569.22,119.74 581.83,135.90 C591.16,147.86 593.87,151.17 613.50,174.53 C618.45,180.42 622.91,185.97 623.42,186.87 C624.92,189.52 638.21,204.00 639.14,204.00 C639.52,204.00 639.84,174.98 639.95,134.89 L 639.94 162.13 C639.83,205.05 639.50,218.00 638.77,217.76 C637.37,217.29 625.74,204.10 614.31,190.00 C610.07,184.77 603.42,176.90 599.53,172.50 C595.64,168.10 589.77,161.13 586.48,157.00 C583.19,152.88 575.20,142.98 568.72,135.00 C556.76,120.29 551.72,113.95 545.79,106.18 C543.98,103.81 540.67,99.76 538.44,97.18 C536.21,94.61 530.62,87.78 526.03,82.00 C521.44,76.22 515.83,69.25 513.55,66.50 C511.27,63.75 508.19,59.70 506.70,57.50 C505.21,55.30 502.60,51.70 500.91,49.50 C498.32,46.13 497.93,44.91 498.43,41.75 L 499.02 38.00 L 494.96 38.00 C491.34,38.00 490.78,37.67 489.84,34.98 C488.46,31.01 485.87,29.75 480.70,30.52 C477.29,31.03 475.95,30.75 473.80,29.06 C471.57,27.30 471.22,26.40 471.68,23.56 L 472.24 20.16 L 468.21 21.06 C464.96,21.80 463.29,21.58 459.54,19.92 C457.02,18.80 453.08,17.94 448.53,17.49 ZM 360.84 204.00 C356.29,198.33 354.52,197.76 350.40,198.90 C346.76,199.90 342.79,199.08 341.54,197.06 C341.18,196.48 340.25,196.00 339.47,196.00 C338.80,196.00 335.41,198.21 331.54,200.98 C335.17,198.16 337.93,195.92 338.23,195.50 C338.64,194.95 338.98,192.88 338.98,190.90 C339.01,185.46 342.66,182.00 348.38,182.00 C352.07,182.00 353.24,182.48 355.03,184.75 C356.84,187.03 357.12,188.37 356.69,192.67 C356.23,197.18 356.21,197.80 360.84,204.00 ZM 259.73 162.27 C258.73,166.03 258.26,168.47 258.37,170.81 C257.97,176.34 258.75,180.97 260.64,183.86 C261.58,185.29 262.44,187.60 262.55,188.98 C262.66,190.37 263.09,192.40 263.50,193.50 C265.21,198.11 258.39,187.01 255.84,181.03 C253.53,175.60 253.05,175.01 253.05,177.50 C253.05,179.15 254.16,183.20 255.52,186.50 C256.88,189.80 257.99,193.06 258.00,193.75 C258.00,194.44 258.37,195.00 258.83,195.00 C259.29,195.00 261.19,197.14 263.05,199.75 C263.55,200.45 264.21,201.35 264.98,202.36 C264.14,201.33 263.27,200.26 262.38,199.18 C260.38,196.75 260.16,196.70 258.56,198.30 C256.01,200.85 255.71,200.43 256.46,195.45 C257.00,191.81 256.60,189.50 254.45,183.86 C252.12,177.76 251.82,175.74 252.19,168.66 C252.55,161.72 253.56,157.18 257.21,151.96 C255.88,154.00 255.01,155.82 255.00,156.81 C255.00,157.53 255.50,157.81 256.11,157.43 C256.88,156.96 257.01,157.77 256.53,160.12 C255.87,163.41 255.92,163.38 258.05,159.21 C259.26,156.85 260.46,155.12 260.71,155.38 C260.94,155.61 260.51,158.59 259.73,162.27 ZM 627.00 425.50 C627.00,426.68 628.39,427.00 633.50,427.00 L 632.00 427.00 C625.99,427.00 624.00,426.67 624.00,425.66 C624.00,423.74 637.28,412.00 639.46,412.00 C639.76,412.00 640.00,415.38 640.00,419.50 L 640.00 421.50 C640.00,418.18 639.57,416.00 638.90,416.00 C638.30,416.00 635.76,417.80 633.26,420.00 C630.76,422.20 628.33,424.00 627.86,424.00 C627.39,424.00 627.00,424.67 627.00,425.50 ZM 346.00 190.00 C346.00,194.20 346.15,194.34 349.75,193.37 C352.57,192.61 352.59,191.26 349.83,188.31 C346.77,185.07 346.00,185.41 346.00,190.00 ZM 253.72 172.39 C254.11,172.78 254.76,172.29 255.15,171.30 C255.69,169.93 255.90,169.86 256.03,171.00 C256.26,173.06 257.79,168.09 257.86,165.00 L 257.93 162.50 L 256.50 165.00 L 255.07 167.50 L 255.02 165.00 C254.98,163.01 254.77,162.81 254.00,164.00 C252.87,165.76 252.68,171.34 253.72,172.39 ZM 600.62 416.49 C598.57,414.96 599.05,412.00 601.35,412.00 C602.12,412.00 603.33,412.70 604.04,413.55 C605.10,414.82 605.07,415.35 603.91,416.49 C602.71,417.67 602.22,417.67 600.62,416.49 ZM 628.60 393.41 C627.40,390.27 630.65,388.67 632.85,391.32 C633.66,392.29 633.64,392.96 632.78,393.82 C631.13,395.47 629.32,395.29 628.60,393.41 ZM 620.21 401.81 C618.19,399.79 618.83,398.00 621.57,398.00 C623.64,398.00 624.08,398.42 623.82,400.17 C623.44,402.77 621.88,403.48 620.21,401.81 ZM 590.70 424.37 C590.32,423.98 590.00,422.81 590.00,421.76 C590.00,420.36 590.59,419.95 592.25,420.18 C593.72,420.39 594.50,421.19 594.50,422.49 C594.50,424.47 592.03,425.69 590.70,424.37 ZM 610.21 408.81 C608.21,406.81 608.77,404.83 611.25,405.18 C612.69,405.38 613.50,406.19 613.50,407.42 C613.50,409.76 611.85,410.45 610.21,408.81 ZM 258.98 182.47 C257.89,180.33 257.00,179.17 257.00,179.88 C257.00,181.27 260.19,187.14 260.68,186.65 C260.84,186.49 260.08,184.61 258.98,182.47 ZM 638.53 385.71 C638.10,384.72 638.03,383.63 638.38,383.29 C639.39,382.27 640.21,383.70 639.74,385.67 C639.33,387.42 639.27,387.42 638.53,385.71 ZM 432.03 18.94 C431.55,19.12 431.05,19.32 430.51,19.53 C423.53,22.33 417.05,26.43 403.09,36.93 C417.13,26.37 424.75,21.28 432.03,18.94 ZM 317.58 212.65 C317.65,212.47 317.92,212.14 318.37,211.69 C315.82,215.15 316.71,220.34 320.93,226.64 C317.13,220.97 316.08,216.57 317.58,212.65 ZM 273.02 212.56 C275.82,216.09 278.00,219.30 278.00,219.96 C278.00,220.37 278.20,220.99 278.56,221.77 C278.57,221.81 278.58,221.84 278.59,221.88 C278.22,221.07 278.00,220.42 278.00,220.00 C278.00,219.43 276.14,216.69 273.02,212.56 ZM 269.73 138.68 C271.23,137.30 272.86,135.83 274.63,134.25 C276.52,132.57 278.33,131.01 279.81,129.78 C279.61,129.97 279.39,130.16 279.18,130.36 C276.57,132.57 273.13,135.60 269.73,138.68 ZM 370.82 217.99 C372.70,221.51 372.29,223.26 370.85,226.42 C372.29,223.26 372.68,221.49 370.82,217.99 ZM 279.23 223.10 C280.14,224.77 281.46,226.82 282.91,228.86 C281.41,226.76 280.05,224.65 279.14,222.96 C279.17,223.01 279.20,223.05 279.23,223.10 Z" fill="rgb(115,99,100)"/>
<path d="M 338.32 246.99 C335.86,246.00 326.84,235.45 320.93,226.64 C316.71,220.34 315.82,215.15 318.37,211.69 C319.95,210.08 323.67,206.97 327.83,203.82 C329.12,202.84 330.38,201.88 331.54,200.98 C335.41,198.21 338.80,196.00 339.47,196.00 C340.25,196.00 341.18,196.48 341.54,197.06 C342.79,199.08 346.76,199.90 350.40,198.90 C354.52,197.76 356.29,198.33 360.84,204.00 C361.48,204.86 362.21,205.82 363.04,206.92 C367.05,212.20 369.49,215.53 370.82,217.99 C372.68,221.49 372.29,223.26 370.85,226.42 C369.66,229.04 351.88,243.47 346.30,246.35 C342.75,248.18 341.51,248.28 338.32,246.99 ZM 340.00 236.50 C340.00,237.35 340.90,238.00 342.08,238.00 C343.85,238.00 344.11,237.48 343.84,234.37 C343.56,231.15 344.03,230.30 348.01,226.84 C352.24,223.15 352.77,222.97 357.25,223.56 C361.60,224.14 362.00,224.01 362.00,222.09 C362.00,220.94 361.55,220.00 361.00,220.00 C360.45,220.00 360.00,218.65 360.00,217.00 C360.00,214.03 357.86,212.81 356.50,215.00 C355.60,216.45 352.03,216.23 346.58,214.37 C342.92,213.13 341.57,212.08 340.81,209.87 C339.61,206.44 337.88,206.25 334.51,209.18 C331.38,211.90 331.36,212.81 334.39,213.96 C336.43,214.73 336.89,215.78 337.50,221.01 C338.14,226.52 337.99,227.38 335.98,229.52 C333.27,232.40 333.98,235.00 337.47,235.00 C339.05,235.00 340.00,235.56 340.00,236.50 ZM 627.00 425.50 C627.00,424.67 627.39,424.00 627.86,424.00 C628.33,424.00 630.76,422.20 633.26,420.00 C635.76,417.80 638.30,416.00 638.90,416.00 C639.57,416.00 640.00,418.18 640.00,421.50 L 640.00 427.00 L 633.50 427.00 C628.39,427.00 627.00,426.68 627.00,425.50 Z" fill="rgb(154,209,233)"/>
<path d="M 631.00 175.31 C635.12,180.57 638.84,184.90 639.25,184.93 C639.58,184.96 639.86,158.96 639.96,122.92 L 639.95 134.89 C639.84,174.98 639.52,204.00 639.14,204.00 C638.21,204.00 624.92,189.52 623.42,186.87 C622.91,185.97 618.45,180.42 613.50,174.53 C593.87,151.17 591.16,147.86 581.83,135.90 C569.22,119.74 566.67,116.53 559.55,107.79 C556.28,103.78 543.91,88.43 532.05,73.67 C520.20,58.92 509.42,45.52 508.11,43.91 C505.86,41.14 505.82,40.86 507.40,39.11 C508.84,37.52 508.87,37.17 507.62,36.68 C506.81,36.38 506.01,35.08 505.83,33.81 C505.53,31.72 505.06,31.53 500.82,31.83 C496.46,32.13 496.02,31.94 494.54,29.08 C492.79,25.70 490.70,25.26 485.42,27.16 C482.92,28.07 481.52,28.04 479.10,27.04 C477.40,26.34 476.00,25.30 476.00,24.75 C476.00,24.20 477.56,22.01 479.47,19.90 C482.79,16.22 484.86,11.53 483.69,10.35 C482.61,9.28 481.00,11.15 481.00,13.48 C481.00,15.27 480.20,16.10 477.75,16.89 C471.04,19.06 466.42,19.27 463.12,17.56 C461.37,16.66 459.49,16.19 458.95,16.53 C458.40,16.87 453.20,17.12 447.38,17.08 C446.97,17.08 446.56,17.08 446.17,17.08 C443.66,16.75 441.18,16.77 438.59,17.17 C436.49,17.37 434.74,17.89 432.09,18.91 C435.04,17.74 437.54,17.00 438.92,17.00 C440.06,17.00 441.00,16.60 441.00,16.12 C441.00,15.63 442.01,14.94 443.25,14.57 C453.92,11.43 457.40,10.89 466.00,11.03 C471.23,11.11 476.27,11.14 477.22,11.09 C478.83,11.01 489.00,1.97 489.00,0.62 C489.00,0.28 378.98,0.00 244.50,0.00 L 548.33 0.00 L 544.12 4.00 C538.06,9.76 534.37,9.14 539.10,3.16 L 541.19 0.50 L 533.94 0.20 C529.95,0.04 526.10,0.13 525.38,0.41 C523.79,1.02 518.63,10.96 519.47,11.80 C519.80,12.14 521.32,11.94 522.85,11.36 C526.41,10.02 528.94,11.01 531.75,14.84 L 533.99 17.91 L 527.07 24.93 L 520.15 31.95 L 520.41 37.18 C520.65,41.96 521.14,42.91 526.00,48.19 C528.93,51.36 532.04,55.04 532.92,56.36 C534.84,59.28 544.65,71.09 551.58,78.83 C554.37,81.95 557.67,86.19 558.91,88.25 C560.15,90.31 561.94,92.56 562.88,93.25 C564.81,94.66 574.80,106.80 579.82,113.84 C583.23,118.63 588.10,124.52 596.01,133.42 C598.49,136.22 601.87,140.29 603.51,142.47 C605.15,144.65 607.99,147.76 609.80,149.37 C611.62,150.98 613.80,153.69 614.66,155.40 C615.51,157.10 617.85,160.13 619.86,162.12 C621.86,164.11 626.88,170.05 631.00,175.31 ZM 329.59 290.38 C329.60,290.41 329.61,290.43 329.62,290.45 C329.70,290.66 329.82,290.86 329.97,291.04 C329.99,291.10 330.00,291.13 330.00,291.16 C330.00,291.53 330.58,291.85 331.38,291.96 C331.51,291.99 331.63,292.00 331.75,292.00 C333.55,292.00 335.57,294.30 337.49,298.55 C337.65,298.92 337.98,299.49 338.45,300.23 C338.30,301.01 346.58,312.18 353.55,321.05 L 353.56 321.05 C358.44,327.41 362.68,332.64 363.31,332.81 C363.97,332.98 365.91,335.00 367.63,337.31 C369.35,339.61 377.24,350.05 385.16,360.50 C422.61,409.92 433.68,424.60 434.37,425.75 C434.71,426.32 420.43,426.65 375.20,426.83 C416.83,426.64 425.00,426.26 425.00,425.51 C425.00,423.08 418.88,411.91 414.28,405.94 C411.93,402.88 410.00,399.92 410.00,399.36 C410.00,398.18 401.80,387.43 399.11,385.09 C398.11,384.22 396.36,381.70 395.23,379.50 C394.10,377.30 391.56,373.95 389.59,372.05 C387.61,370.16 386.00,368.13 386.00,367.55 C386.00,366.97 384.87,365.19 383.50,363.59 C382.12,362.00 381.00,360.37 381.00,359.99 C381.00,359.61 379.88,358.08 378.51,356.61 C377.14,355.13 373.60,350.90 370.64,347.21 C367.68,343.52 364.08,339.24 362.64,337.71 C355.21,329.80 346.30,317.45 346.79,315.75 C346.90,315.34 346.39,315.00 345.65,315.00 C343.52,315.00 340.26,311.65 340.79,310.00 C341.06,309.17 340.94,308.81 340.53,309.19 C339.78,309.88 338.46,309.03 335.08,305.70 C333.43,304.07 332.60,304.01 326.62,305.05 C322.97,305.69 319.38,305.98 318.65,305.70 C317.15,305.12 317.57,299.35 319.28,297.21 C319.85,296.50 320.35,293.87 320.41,291.37 C320.49,287.48 320.07,286.47 317.61,284.50 C315.45,282.78 314.86,281.63 315.30,279.97 C315.62,278.74 315.22,276.74 314.40,275.49 C313.59,274.25 313.05,272.83 313.21,272.34 C313.37,271.85 311.70,269.03 309.50,266.08 C301.17,254.90 299.11,251.63 299.70,250.58 C300.04,249.99 299.95,249.83 299.50,250.24 C298.23,251.39 296.05,249.04 296.73,247.26 C297.15,246.17 296.95,245.91 296.10,246.44 C295.31,246.93 294.67,246.45 294.32,245.10 C294.01,243.95 293.14,243.00 292.38,243.00 C291.14,243.00 290.58,241.77 291.25,240.54 C291.39,240.29 290.60,239.41 289.50,238.57 C288.40,237.74 287.89,237.05 288.37,237.03 C289.30,237.00 284.82,231.29 278.12,224.00 C275.85,221.52 274.20,218.94 274.46,218.25 C274.72,217.56 274.47,217.00 273.91,217.00 C273.34,217.00 273.11,216.62 273.40,216.17 C273.68,215.71 273.31,215.33 272.57,215.33 C270.59,215.33 265.00,212.88 265.00,212.02 C265.00,211.39 262.69,211.33 259.83,211.87 C259.46,211.94 257.79,213.15 256.12,214.56 C253.47,216.78 252.78,216.95 250.79,215.89 C249.53,215.21 248.27,214.76 248.00,214.88 C246.63,215.49 247.05,211.57 248.61,209.20 C250.44,206.41 252.11,199.46 252.03,194.89 C252.01,193.46 252.62,190.50 253.38,188.33 C254.59,184.91 254.58,183.91 253.30,180.94 C252.80,179.76 252.46,178.32 252.28,176.47 C252.59,178.68 253.25,180.74 254.45,183.86 C256.60,189.50 257.00,191.81 256.46,195.45 C255.71,200.43 256.01,200.85 258.56,198.30 C260.16,196.70 260.38,196.75 262.38,199.18 C263.27,200.26 264.14,201.33 264.98,202.36 C267.06,205.12 269.89,208.73 272.22,211.58 C272.49,211.91 272.75,212.24 273.02,212.56 C276.14,216.69 278.00,219.43 278.00,220.00 C278.00,220.42 278.22,221.07 278.59,221.88 C278.70,222.18 278.89,222.55 279.14,222.96 C280.05,224.64 281.41,226.75 282.91,228.86 L 282.91 228.86 C283.21,229.28 283.52,229.70 283.83,230.12 C284.70,231.42 286.14,233.21 287.42,234.64 C289.17,236.64 290.65,238.02 291.34,238.04 C292.67,238.09 303.72,252.51 307.02,258.50 C308.02,260.31 311.90,265.90 316.29,271.87 L 316.29 271.88 C317.02,272.87 317.78,273.90 318.55,274.94 C323.80,281.99 328.25,288.23 329.59,290.38 ZM 283.33 127.00 C282.99,127.00 281.63,128.12 279.81,129.78 C278.54,130.83 277.03,132.13 275.44,133.53 C285.34,124.70 288.41,121.56 288.81,119.92 C289.33,117.80 294.22,114.11 297.46,113.40 C299.12,113.03 301.88,111.67 303.58,110.37 C305.29,109.07 307.05,108.00 307.50,108.00 C308.00,108.00 309.79,106.87 313.46,104.19 C311.50,105.73 309.44,107.38 307.69,108.84 C303.95,111.95 299.21,115.62 297.16,117.00 C295.12,118.38 291.39,121.19 288.87,123.25 C286.35,125.31 283.86,127.00 283.33,127.00 ZM 258.03 372.68 C256.57,376.50 253.86,379.16 252.38,378.20 C251.79,377.81 251.01,376.28 250.64,374.78 C250.05,372.35 250.31,371.98 253.19,371.23 C255.63,370.60 256.59,369.66 257.20,367.33 C258.00,364.21 260.59,361.25 261.61,362.28 C261.92,362.58 261.51,364.34 260.70,366.17 C259.90,368.00 258.69,370.93 258.03,372.68 ZM 449.96 95.92 C448.21,92.65 449.45,90.95 453.22,91.44 C455.02,91.67 456.59,91.90 456.70,91.93 C456.81,91.97 456.43,93.35 455.85,95.00 C454.62,98.54 451.61,99.01 449.96,95.92 ZM 253.72 172.39 C252.68,171.34 252.87,165.76 254.00,164.00 C254.77,162.81 254.98,163.01 255.02,165.00 L 255.07 167.50 L 256.50 165.00 L 257.93 162.50 L 257.86 165.00 C257.79,168.09 256.26,173.06 256.03,171.00 C255.90,169.86 255.69,169.93 255.15,171.30 C254.76,172.29 254.11,172.78 253.72,172.39 ZM 499.03 0.00 C495.67,0.00 495.16,0.27 495.71,1.75 C496.06,2.71 496.84,3.83 497.43,4.23 C499.27,5.49 500.89,5.08 501.96,3.07 C503.51,0.18 503.34,0.00 499.03,0.00 ZM 512.60 30.26 C513.57,31.24 516.00,29.90 516.00,28.39 C516.00,27.63 515.10,27.00 514.00,27.00 C512.12,27.00 511.28,28.95 512.60,30.26 ZM 461.00 87.50 C461.00,86.34 461.73,85.96 463.53,86.18 C464.92,86.36 466.06,86.95 466.06,87.50 C466.06,88.05 464.92,88.64 463.53,88.82 C461.73,89.04 461.00,88.66 461.00,87.50 ZM 321.66 98.04 L 321.81 97.92 C324.39,95.96 340.90,83.56 358.50,70.37 C388.24,48.08 392.52,44.88 398.55,40.34 C396.10,42.19 393.99,43.77 393.09,44.45 C391.67,45.52 375.51,57.67 357.20,71.45 C341.96,82.91 327.56,93.68 321.66,98.04 ZM 310.00 310.00 C310.00,310.55 309.58,311.00 309.06,311.00 C308.54,311.00 307.84,310.55 307.50,310.00 C307.16,309.45 307.58,309.00 308.44,309.00 C309.30,309.00 310.00,309.45 310.00,310.00 ZM 419.85 25.01 C418.51,25.86 417.10,26.80 415.60,27.83 C416.10,27.48 416.58,27.15 417.01,26.85 C417.88,26.24 418.84,25.63 419.85,25.01 ZM 257.40 151.66 C257.34,151.76 257.27,151.86 257.21,151.96 C255.51,154.39 254.38,156.68 253.62,159.13 C254.40,156.57 255.58,154.20 257.40,151.66 Z" fill="rgb(164,155,161)"/>
<path d="M 0.00 0.00 L 244.50 0.00 C378.98,0.00 489.00,0.28 489.00,0.62 C489.00,1.97 478.83,11.01 477.22,11.09 C476.27,11.14 471.23,11.11 466.00,11.03 C457.40,10.89 453.92,11.43 443.25,14.57 C442.01,14.94 441.00,15.63 441.00,16.12 C441.00,16.60 440.06,17.00 438.92,17.00 C437.54,17.00 435.04,17.74 432.09,18.91 L 432.03 18.94 C428.32,20.13 424.53,22.04 419.85,25.01 C418.84,25.63 417.88,26.24 417.01,26.85 C416.58,27.15 416.10,27.48 415.60,27.83 C412.03,30.29 407.95,33.28 403.09,36.93 C401.58,38.07 400.01,39.25 398.55,40.34 L 398.50 40.38 C392.49,44.90 388.15,48.15 358.50,70.37 C340.90,83.56 324.39,95.96 321.81,97.92 L 321.66 98.04 C320.47,98.91 319.63,99.53 319.20,99.84 C317.82,100.82 315.70,102.43 313.46,104.19 C309.79,106.87 308.00,108.00 307.50,108.00 C307.05,108.00 305.29,109.07 303.58,110.37 C301.88,111.67 299.12,113.03 297.46,113.40 C294.22,114.11 289.33,117.80 288.81,119.92 C288.41,121.56 285.34,124.70 275.44,133.53 C275.17,133.77 274.90,134.01 274.63,134.25 C272.86,135.83 271.23,137.30 269.73,138.68 L 269.73 138.68 C267.33,140.85 264.96,143.05 262.93,145.00 C260.92,146.93 258.90,149.41 257.40,151.66 C255.58,154.20 254.40,156.57 253.62,159.12 L 253.62 159.13 C252.76,161.93 252.38,164.95 252.19,168.66 C252.01,172.11 251.98,174.36 252.28,176.47 L 252.28 176.47 C252.46,178.32 252.80,179.76 253.30,180.94 C254.58,183.91 254.59,184.91 253.38,188.33 C252.62,190.50 252.01,193.46 252.03,194.89 C252.11,199.46 250.44,206.41 248.61,209.20 C247.05,211.57 246.63,215.49 248.00,214.88 C248.27,214.76 249.53,215.21 250.79,215.89 C252.78,216.95 253.47,216.78 256.12,214.56 C257.79,213.15 259.46,211.94 259.83,211.87 C262.69,211.33 265.00,211.39 265.00,212.02 C265.00,212.88 270.59,215.33 272.57,215.33 C273.31,215.33 273.68,215.71 273.40,216.17 C273.11,216.62 273.34,217.00 273.91,217.00 C274.47,217.00 274.72,217.56 274.46,218.25 C274.20,218.94 275.85,221.52 278.12,224.00 C284.82,231.29 289.30,237.00 288.37,237.03 C287.89,237.05 288.40,237.74 289.50,238.57 C290.60,239.41 291.39,240.29 291.25,240.54 C290.58,241.77 291.14,243.00 292.38,243.00 C293.14,243.00 294.01,243.95 294.32,245.10 C294.67,246.45 295.31,246.93 296.10,246.44 C296.95,245.91 297.15,246.17 296.73,247.26 C296.05,249.04 298.23,251.39 299.50,250.24 C299.95,249.83 300.04,249.99 299.70,250.58 C299.11,251.63 301.17,254.90 309.50,266.08 C311.70,269.03 313.37,271.85 313.21,272.34 C313.05,272.83 313.59,274.25 314.40,275.49 C315.22,276.74 315.62,278.74 315.30,279.97 C314.86,281.63 315.45,282.78 317.61,284.50 C320.07,286.47 320.49,287.48 320.41,291.37 C320.35,293.87 319.85,296.50 319.28,297.21 C317.57,299.35 317.15,305.12 318.65,305.70 C319.38,305.98 322.97,305.69 326.62,305.05 C332.60,304.01 333.43,304.07 335.08,305.70 C338.46,309.03 339.78,309.88 340.53,309.19 C340.94,308.81 341.06,309.17 340.79,310.00 C340.26,311.65 343.52,315.00 345.65,315.00 C346.39,315.00 346.90,315.34 346.79,315.75 C346.30,317.45 355.21,329.80 362.64,337.71 C364.08,339.24 367.68,343.52 370.64,347.21 C373.60,350.90 377.14,355.13 378.51,356.61 C379.88,358.08 381.00,359.61 381.00,359.99 C381.00,360.37 382.12,362.00 383.50,363.59 C384.87,365.19 386.00,366.97 386.00,367.55 C386.00,368.13 387.61,370.16 389.59,372.05 C391.56,373.95 394.10,377.30 395.23,379.50 C396.36,381.70 398.11,384.22 399.11,385.09 C401.80,387.43 410.00,398.18 410.00,399.36 C410.00,399.92 411.93,402.88 414.28,405.94 C418.88,411.91 425.00,423.08 425.00,425.51 C425.00,426.03 421.08,426.37 404.86,426.59 L 403.54 423.45 C400.76,416.79 394.51,407.51 389.43,402.50 C386.64,399.75 382.92,395.48 381.15,393.00 C379.38,390.52 376.80,387.15 375.41,385.50 C374.03,383.85 371.15,379.80 369.01,376.50 C366.86,373.20 363.96,369.38 362.55,368.00 C356.20,361.82 355.00,360.45 355.00,359.42 C355.00,358.81 354.09,357.49 352.99,356.49 C351.88,355.48 349.39,352.38 347.46,349.58 C336.35,333.50 325.25,321.64 319.15,319.32 C316.59,318.35 313.80,316.70 312.94,315.65 C310.86,313.12 307.46,314.21 305.48,318.04 C304.18,320.56 300.23,323.78 299.61,322.83 C296.79,318.53 296.00,316.38 296.00,313.04 C296.00,309.42 296.26,309.00 298.44,309.00 C300.42,309.00 308.00,305.48 308.00,304.56 C308.00,304.42 306.91,303.04 305.58,301.50 C304.25,299.95 302.88,297.17 302.53,295.33 C301.69,290.85 296.33,279.00 295.14,279.00 C294.62,279.00 293.76,277.76 293.24,276.25 C292.22,273.33 288.83,268.04 284.57,262.73 C278.38,255.01 268.51,243.44 267.56,242.79 C266.99,242.40 265.32,243.23 263.85,244.64 C261.03,247.35 259.78,247.32 253.34,244.42 C250.80,243.27 250.30,242.56 250.77,240.75 C251.09,239.51 252.05,237.98 252.91,237.34 C254.22,236.37 253.82,236.06 250.52,235.44 C245.18,234.44 242.15,236.38 232.45,247.00 C228.19,251.68 223.47,256.25 221.96,257.17 C220.45,258.09 218.92,259.32 218.55,259.92 C218.18,260.51 216.74,261.00 215.34,261.00 C213.78,261.00 211.67,262.21 209.87,264.14 C207.67,266.50 206.01,267.30 203.22,267.39 C199.97,267.49 199.46,267.19 199.18,265.00 C198.88,262.66 196.58,260.00 194.85,260.00 C194.42,260.00 193.27,260.84 192.29,261.87 C190.65,263.59 183.46,265.11 177.30,265.05 C174.43,265.02 173.63,266.45 175.04,269.08 C176.00,270.87 175.78,271.62 173.59,273.91 C170.66,276.96 170.11,282.02 172.50,284.00 C174.51,285.67 174.40,286.75 171.75,291.75 C170.44,294.23 168.79,296.00 167.79,296.00 C166.84,296.00 165.57,297.01 164.95,298.25 C163.49,301.18 150.96,313.00 149.32,313.00 C148.62,313.00 146.19,315.36 143.91,318.25 C141.64,321.14 139.04,323.91 138.14,324.42 C137.24,324.92 134.61,326.87 132.29,328.75 C129.98,330.63 127.63,331.89 127.08,331.55 C125.77,330.74 127.61,326.34 130.69,322.95 C131.96,321.54 133.00,319.69 133.00,318.83 C133.00,317.97 133.93,316.08 135.07,314.63 C136.75,312.50 137.98,312.00 141.57,312.00 C145.49,312.00 146.00,311.74 146.03,309.75 C146.05,308.51 146.72,306.63 147.53,305.56 C148.38,304.44 149.00,301.45 149.00,298.52 C149.00,295.72 149.85,290.97 150.88,287.97 C151.91,284.96 153.07,278.45 153.45,273.50 C154.13,264.66 155.47,261.01 159.95,255.75 C161.85,253.52 162.61,253.55 165.71,255.99 C168.23,257.97 168.24,257.97 171.07,255.95 C174.41,253.58 174.12,252.16 169.82,249.70 C167.08,248.14 166.86,247.71 168.10,246.47 C170.38,244.19 181.01,243.13 186.14,244.67 C192.57,246.59 195.36,246.31 198.00,243.50 C200.63,240.70 202.00,240.32 202.00,242.39 C202.00,244.21 208.40,245.39 210.92,244.04 C214.00,242.40 214.88,242.77 216.38,246.38 C217.92,250.05 220.00,251.97 220.00,249.71 C220.00,248.94 220.90,247.50 222.00,246.50 C223.10,245.50 224.00,243.47 224.00,241.98 C224.00,239.04 226.10,235.84 232.37,229.25 C237.93,223.40 236.20,222.39 227.60,226.46 C222.38,228.93 220.27,230.55 218.94,233.11 C217.38,236.14 216.73,236.51 212.80,236.62 C210.39,236.68 207.35,237.07 206.06,237.48 L 203.70 238.23 L 205.88 235.17 C207.07,233.49 209.05,231.82 210.28,231.45 C211.50,231.08 214.07,229.30 216.00,227.48 C217.93,225.66 221.14,223.50 223.15,222.68 C225.16,221.86 227.11,220.24 227.47,219.09 C227.93,217.65 229.54,216.64 232.60,215.87 C237.28,214.69 239.89,211.81 238.20,209.69 C237.68,209.03 237.01,206.25 236.72,203.50 C236.43,200.75 235.22,192.97 234.03,186.21 C232.37,176.78 232.11,173.18 232.90,170.71 C233.47,168.95 234.36,164.73 234.89,161.35 C235.66,156.44 236.93,153.64 241.22,147.35 C247.98,137.45 249.85,135.31 264.33,120.90 C274.72,110.55 276.57,108.18 276.92,104.75 C276.97,104.34 278.52,104.00 280.38,104.00 C282.24,104.00 284.30,103.34 284.97,102.54 C285.63,101.74 287.15,100.77 288.34,100.40 C289.53,100.03 292.30,98.51 294.50,97.01 C296.70,95.51 301.25,92.53 304.62,90.39 C310.47,86.67 314.10,84.07 332.39,70.47 C336.85,67.15 342.72,62.91 345.43,61.05 C348.14,59.19 352.74,55.50 355.67,52.85 C358.59,50.20 362.90,46.83 365.24,45.36 C367.58,43.88 371.52,41.01 374.00,38.96 C376.48,36.92 383.09,31.46 388.71,26.82 C394.32,22.18 401.65,16.84 405.00,14.94 C408.35,13.05 413.88,9.88 417.29,7.90 C420.71,5.92 424.62,4.02 426.00,3.69 C427.38,3.36 429.40,2.41 430.50,1.58 C432.29,0.22 409.43,0.06 216.25,0.03 ZM 631.00 175.31 C626.88,170.05 621.86,164.11 619.86,162.12 C617.85,160.13 615.51,157.10 614.66,155.40 C613.80,153.69 611.62,150.98 609.80,149.37 C607.99,147.76 605.15,144.65 603.51,142.47 C601.87,140.29 598.49,136.22 596.01,133.42 C588.10,124.52 583.23,118.63 579.82,113.84 C574.80,106.80 564.81,94.66 562.88,93.25 C561.94,92.56 560.15,90.31 558.91,88.25 C557.67,86.19 554.37,81.95 551.58,78.83 C544.65,71.09 534.84,59.28 532.92,56.36 C532.04,55.04 528.93,51.36 526.00,48.19 C521.14,42.91 520.65,41.96 520.41,37.18 L 520.15 31.95 L 527.07 24.93 L 533.99 17.91 L 531.75 14.84 C528.94,11.01 526.41,10.02 522.85,11.36 C521.32,11.94 519.80,12.14 519.47,11.80 C518.63,10.96 523.79,1.02 525.38,0.41 C526.10,0.13 529.95,0.04 533.94,0.20 L 541.19 0.50 L 539.10 3.16 C534.37,9.14 538.06,9.76 544.12,4.00 L 548.33 0.00 L 560.49 0.00 L 559.17 2.98 C557.83,6.00 558.35,10.00 560.08,10.00 C560.60,10.00 561.88,9.46 562.93,8.81 C565.16,7.42 567.99,9.12 568.02,11.87 C568.03,12.77 569.50,14.18 571.27,15.00 C574.01,16.27 574.55,17.11 574.82,20.49 C575.25,25.67 576.47,27.00 580.78,27.00 C583.63,27.00 585.04,27.79 588.10,31.11 C590.19,33.37 592.03,35.91 592.20,36.75 C592.36,37.60 593.29,38.67 594.25,39.14 L 597.75 40.86 C598.71,41.33 599.66,42.57 599.86,43.61 C600.40,46.46 602.00,48.00 604.43,48.00 C605.63,48.00 607.49,48.66 608.56,49.47 C609.63,50.28 611.44,50.95 612.60,50.97 C613.75,50.99 615.48,51.88 616.45,52.95 C617.42,54.02 619.85,55.07 621.86,55.28 C623.86,55.49 628.76,55.74 632.75,55.83 L 639.98 56.00 L 639.96 122.92 C639.86,158.96 639.58,184.96 639.25,184.93 C638.84,184.90 635.12,180.57 631.00,175.31 ZM 253.09 410.09 C251.72,414.68 249.86,415.04 245.59,411.55 L 242.67 409.17 L 244.37 403.76 C245.31,400.79 245.80,397.64 245.46,396.77 C245.13,395.90 245.27,393.68 245.78,391.83 C246.29,389.99 246.40,386.15 246.04,383.29 C245.67,380.43 245.80,377.32 246.32,376.38 C246.96,375.24 246.88,374.04 246.07,372.74 C244.59,370.37 245.61,363.09 247.52,362.35 C248.25,362.07 249.82,362.37 251.01,363.01 C252.21,363.65 254.16,363.92 255.34,363.61 C258.30,362.85 265.33,356.21 267.38,352.24 C268.30,350.45 270.81,347.88 272.94,346.54 C275.08,345.19 277.12,343.61 277.47,343.04 C278.56,341.29 280.00,341.88 280.00,344.07 C280.00,345.33 277.74,348.19 274.27,351.32 C264.88,359.80 264.00,360.81 264.00,363.10 C264.00,364.30 263.14,367.13 262.09,369.39 C261.04,371.65 259.64,374.96 258.97,376.75 C258.30,378.54 257.37,380.00 256.90,380.00 C255.31,380.00 252.75,386.15 253.87,387.27 C255.23,388.63 258.30,386.21 257.58,384.34 C257.29,383.60 257.50,383.00 258.03,383.00 C258.56,383.00 259.00,383.90 259.00,385.00 C259.00,387.55 262.10,387.66 264.33,385.19 C265.24,384.19 266.51,381.82 267.15,379.94 C267.80,378.05 269.83,374.73 271.67,372.57 C273.50,370.41 275.00,368.13 275.00,367.50 C275.00,366.87 276.34,364.59 277.97,362.43 C281.11,358.27 281.75,355.15 279.85,353.25 C278.97,352.37 279.42,351.41 281.69,349.29 C284.73,346.45 287.01,339.29 285.25,338.10 C283.31,336.79 283.21,333.96 284.95,329.37 C287.04,323.87 288.36,323.00 290.19,325.93 C291.82,328.55 292.81,328.53 295.69,325.83 C298.90,322.80 298.58,324.61 294.53,332.24 C290.59,339.66 289.10,344.68 288.06,354.00 C287.33,360.55 286.58,362.99 282.86,370.74 C280.55,375.57 279.73,376.26 276.13,376.40 C274.53,376.46 273.14,377.35 272.44,378.74 C271.83,379.98 270.66,381.78 269.85,382.74 C267.89,385.09 266.00,389.65 266.00,392.02 C266.00,393.15 264.76,394.59 263.00,395.50 C260.91,396.58 260.00,397.79 260.00,399.50 C260.00,401.03 258.93,402.73 257.13,404.06 C255.51,405.26 253.75,407.89 253.09,410.09 ZM 639.98 51.11 C639.89,48.98 639.46,48.00 638.61,48.00 C637.82,48.00 636.97,46.59 636.66,44.75 C635.22,36.46 634.57,34.73 631.87,32.03 C630.28,30.44 627.98,28.99 626.75,28.82 C624.13,28.44 619.99,20.73 619.08,14.51 C618.65,11.58 617.97,10.43 616.50,10.15 C613.81,9.64 613.03,8.21 613.02,3.75 L 613.00 0.00 L 640.00 0.00 ZM 66.97 413.73 C63.40,416.24 58.15,418.82 57.65,418.31 C57.41,418.08 58.74,415.61 60.61,412.84 C62.47,410.07 64.00,407.39 64.00,406.90 C64.00,405.36 66.85,405.91 67.82,407.64 C68.48,408.82 69.48,409.10 71.35,408.63 C75.10,407.68 81.00,402.19 81.00,399.63 C81.00,395.42 84.38,390.86 88.54,389.43 C94.12,387.53 97.36,383.55 96.56,379.59 C94.97,371.66 96.04,370.28 100.54,374.45 C102.05,375.85 104.35,377.00 105.65,377.00 C107.28,377.00 108.00,377.57 108.00,378.88 C108.00,381.17 106.37,382.62 102.78,383.52 C98.16,384.68 88.28,398.95 89.64,402.49 C90.37,404.42 87.27,406.26 81.83,407.12 C78.49,407.64 76.25,408.62 75.32,409.96 C74.53,411.08 72.89,412.00 71.67,412.00 C70.44,412.00 68.33,412.78 66.97,413.73 ZM 116.71 361.79 C114.92,365.58 113.92,366.56 111.62,366.83 L 108.75 367.16 L 109.45 361.54 C110.47,353.40 117.87,340.77 123.36,337.82 C125.09,336.88 125.17,337.15 124.51,341.91 C123.92,346.19 124.06,347.00 125.41,347.00 C128.09,347.00 127.19,349.32 122.97,353.29 C120.76,355.37 117.94,359.20 116.71,361.79 ZM 133.57 427.00 C138.97,427.00 139.29,426.85 143.79,422.00 C148.86,416.55 150.00,415.99 150.00,418.94 C150.00,420.04 148.70,421.66 147.00,422.66 C146.84,422.76 146.67,422.85 146.52,422.94 C145.17,423.73 144.08,424.37 144.13,424.88 C144.34,426.80 160.52,426.98 238.63,427.00 C231.83,427.00 224.81,427.00 217.56,427.00 L 39.50 427.00 C69.02,427.00 79.00,426.70 79.00,425.83 C79.00,423.75 82.24,421.00 84.70,421.00 C86.31,421.00 87.65,421.98 88.80,423.99 L 90.50 426.99 L 121.12 427.00 L 125.52 422.25 C127.95,419.64 130.83,416.49 131.93,415.25 C134.04,412.88 137.00,412.22 137.00,414.13 C137.00,414.75 134.98,417.14 132.50,419.45 C126.23,425.29 126.47,427.00 133.57,427.00 ZM 99.00 409.46 C99.00,411.46 95.67,414.86 94.25,414.32 C92.17,413.51 92.72,405.62 95.07,402.63 C97.69,399.30 99.78,399.28 101.03,402.57 C101.77,404.52 101.64,405.50 100.50,406.64 C99.68,407.47 99.00,408.74 99.00,409.46 ZM 258.03 372.68 C258.69,370.93 259.90,368.00 260.70,366.17 C261.51,364.34 261.92,362.58 261.61,362.28 C260.59,361.25 258.00,364.21 257.20,367.33 C256.59,369.66 255.63,370.60 253.19,371.23 C250.31,371.98 250.05,372.35 250.64,374.78 C251.01,376.28 251.79,377.81 252.38,378.20 C253.86,379.16 256.57,376.50 258.03,372.68 ZM 151.14 405.32 C144.79,408.12 144.22,407.04 149.25,401.75 C151.04,399.88 153.46,397.02 154.63,395.42 C157.60,391.36 158.51,392.93 156.58,398.75 C155.24,402.80 154.31,403.92 151.14,405.32 ZM 217.71 381.25 C214.78,385.83 213.13,384.81 213.28,378.50 C213.35,375.48 213.71,373.00 214.08,373.00 C214.45,373.00 216.48,373.72 218.60,374.60 C221.79,375.94 222.18,376.40 220.95,377.35 C220.14,377.98 218.68,379.74 217.71,381.25 ZM 347.10 257.85 C345.56,253.43 345.60,253.34 349.45,253.42 C353.74,253.52 355.21,256.66 351.41,257.61 C350.09,257.94 349.24,258.58 349.52,259.04 C349.80,259.49 349.62,260.12 349.11,260.43 C348.61,260.74 347.70,259.58 347.10,257.85 ZM 346.00 190.00 C346.00,185.41 346.77,185.07 349.83,188.31 C352.59,191.26 352.57,192.61 349.75,193.37 C346.15,194.34 346.00,194.20 346.00,190.00 ZM 495.71 1.75 C495.16,0.27 495.67,0.00 499.03,0.00 C503.34,0.00 503.51,0.18 501.96,3.07 C500.89,5.08 499.27,5.49 497.43,4.23 C496.84,3.83 496.06,2.71 495.71,1.75 ZM 347.48 221.04 C347.15,221.56 345.96,222.49 344.82,223.09 C343.33,223.89 342.95,223.90 343.44,223.10 C343.81,222.49 343.64,222.00 343.06,222.00 C342.48,222.00 342.00,220.86 342.00,219.47 C342.00,216.98 342.04,216.97 345.03,218.52 C346.70,219.38 347.80,220.51 347.48,221.04 ZM 231.00 377.52 C231.00,379.62 228.30,379.98 226.59,378.10 C224.59,375.89 224.60,375.37 226.63,374.59 C228.46,373.89 231.00,375.59 231.00,377.52 ZM 383.75 146.61 C381.77,145.11 381.42,143.00 383.14,143.00 C383.77,143.00 384.88,143.79 385.61,144.75 C388.06,147.98 386.98,149.06 383.75,146.61 ZM 512.60 30.26 C511.28,28.95 512.12,27.00 514.00,27.00 C515.10,27.00 516.00,27.63 516.00,28.39 C516.00,29.90 513.57,31.24 512.60,30.26 ZM 179.67 254.33 C180.82,255.48 182.00,255.06 182.00,253.50 C182.00,252.68 181.32,252.00 180.50,252.00 C178.94,252.00 178.52,253.18 179.67,254.33 ZM 167.54 303.93 C167.18,304.52 166.12,304.99 165.19,304.97 C163.71,304.94 163.74,304.76 165.43,303.48 C167.48,301.92 168.63,302.17 167.54,303.93 ZM 310.00 310.00 C310.00,309.45 309.30,309.00 308.44,309.00 C307.58,309.00 307.16,309.45 307.50,310.00 C307.84,310.55 308.54,311.00 309.06,311.00 C309.58,311.00 310.00,310.55 310.00,310.00 Z" fill="rgb(208,205,209)"/>
<path d="M 0.00 213.50 L 0.00 0.00 L 216.25 0.03 C409.43,0.06 432.29,0.22 430.50,1.58 C429.40,2.41 427.38,3.36 426.00,3.69 C424.62,4.02 420.71,5.92 417.29,7.90 C413.88,9.88 408.35,13.05 405.00,14.94 C401.65,16.84 394.32,22.18 388.71,26.82 C383.09,31.46 376.48,36.92 374.00,38.96 C371.52,41.01 367.58,43.88 365.24,45.36 C362.90,46.83 358.59,50.20 355.67,52.85 C352.74,55.50 348.14,59.19 345.43,61.05 C342.72,62.91 336.85,67.15 332.39,70.47 C314.10,84.07 310.47,86.67 304.62,90.39 C301.25,92.53 296.70,95.51 294.50,97.01 C292.30,98.51 289.53,100.03 288.34,100.40 C287.15,100.77 285.63,101.74 284.97,102.54 C284.30,103.34 282.24,104.00 280.38,104.00 C278.52,104.00 276.97,104.34 276.92,104.75 C276.57,108.18 274.72,110.55 264.33,120.90 C249.85,135.31 247.98,137.45 241.22,147.35 C236.93,153.64 235.66,156.44 234.89,161.35 C234.36,164.73 233.47,168.95 232.90,170.71 C232.11,173.18 232.37,176.78 234.03,186.21 C235.22,192.97 236.43,200.75 236.72,203.50 C237.01,206.25 237.68,209.03 238.20,209.69 C239.89,211.81 237.28,214.69 232.60,215.87 C229.54,216.64 227.93,217.65 227.47,219.09 C227.11,220.24 225.16,221.86 223.15,222.68 C221.14,223.50 217.93,225.66 216.00,227.48 C214.07,229.30 211.50,231.08 210.28,231.45 C209.05,231.82 207.07,233.49 205.88,235.17 L 203.70 238.23 L 206.06 237.48 C207.35,237.07 210.39,236.68 212.80,236.62 C216.73,236.51 217.38,236.14 218.94,233.11 C220.27,230.55 222.38,228.93 227.60,226.46 C236.20,222.39 237.93,223.40 232.37,229.25 C226.10,235.84 224.00,239.04 224.00,241.98 C224.00,243.47 223.10,245.50 222.00,246.50 C220.90,247.50 220.00,248.94 220.00,249.71 C220.00,251.97 217.92,250.05 216.38,246.38 C214.88,242.77 214.00,242.40 210.92,244.04 C208.40,245.39 202.00,244.21 202.00,242.39 C202.00,240.32 200.63,240.70 198.00,243.50 C195.36,246.31 192.57,246.59 186.14,244.67 C181.01,243.13 170.38,244.19 168.10,246.47 C166.86,247.71 167.08,248.14 169.82,249.70 C174.12,252.16 174.41,253.58 171.07,255.95 C168.24,257.97 168.23,257.97 165.71,255.99 C162.61,253.55 161.85,253.52 159.95,255.75 C155.47,261.01 154.13,264.66 153.45,273.50 C153.07,278.45 151.91,284.96 150.88,287.97 C149.85,290.97 149.00,295.72 149.00,298.52 C149.00,301.45 148.38,304.44 147.53,305.56 C146.72,306.63 146.05,308.51 146.03,309.75 C146.00,311.74 145.49,312.00 141.57,312.00 C137.98,312.00 136.75,312.50 135.07,314.63 C133.93,316.08 133.00,317.97 133.00,318.83 C133.00,319.69 131.96,321.54 130.69,322.95 C127.61,326.34 125.77,330.74 127.08,331.55 C127.63,331.89 129.98,330.63 132.29,328.75 C134.61,326.87 137.24,324.92 138.14,324.42 C139.04,323.91 141.64,321.14 143.91,318.25 C146.19,315.36 148.62,313.00 149.32,313.00 C150.96,313.00 163.49,301.18 164.95,298.25 C165.57,297.01 166.84,296.00 167.79,296.00 C168.79,296.00 170.44,294.23 171.75,291.75 C174.40,286.75 174.51,285.67 172.50,284.00 C170.11,282.02 170.66,276.96 173.59,273.91 C175.78,271.62 176.00,270.87 175.04,269.08 C173.63,266.45 174.43,265.02 177.30,265.05 C183.46,265.11 190.65,263.59 192.29,261.87 C193.27,260.84 194.42,260.00 194.85,260.00 C196.58,260.00 198.88,262.66 199.18,265.00 C199.46,267.19 199.97,267.49 203.22,267.39 C206.01,267.30 207.67,266.50 209.87,264.14 C211.67,262.21 213.78,261.00 215.34,261.00 C216.74,261.00 218.18,260.51 218.55,259.92 C218.92,259.32 220.45,258.09 221.96,257.17 C223.47,256.25 228.19,251.68 232.45,247.00 C242.15,236.38 245.18,234.44 250.52,235.44 C253.82,236.06 254.22,236.37 252.91,237.34 C252.05,237.98 251.09,239.51 250.77,240.75 C250.30,242.56 250.80,243.27 253.34,244.42 C259.78,247.32 261.03,247.35 263.85,244.64 C265.32,243.23 266.99,242.40 267.56,242.79 C268.51,243.44 278.38,255.01 284.57,262.73 C288.83,268.04 292.22,273.33 293.24,276.25 C293.76,277.76 294.62,279.00 295.14,279.00 C296.33,279.00 301.69,290.85 302.53,295.33 C302.88,297.17 304.25,299.95 305.58,301.50 C306.91,303.04 308.00,304.42 308.00,304.56 C308.00,305.48 300.42,309.00 298.44,309.00 C296.26,309.00 296.00,309.42 296.00,313.04 C296.00,316.38 296.79,318.53 299.61,322.83 C300.23,323.78 304.18,320.56 305.48,318.04 C307.46,314.21 310.86,313.12 312.94,315.65 C313.80,316.70 316.59,318.35 319.15,319.32 C325.25,321.64 336.35,333.50 347.46,349.58 C349.39,352.38 351.88,355.48 352.99,356.49 C354.09,357.49 355.00,358.81 355.00,359.42 C355.00,360.45 356.20,361.82 362.55,368.00 C363.96,369.38 366.86,373.20 369.01,376.50 C371.15,379.80 374.03,383.85 375.41,385.50 C376.80,387.15 379.38,390.52 381.15,393.00 C382.92,395.48 386.64,399.75 389.43,402.50 C394.51,407.51 400.76,416.79 403.54,423.45 L 405.03 427.00 L 274.51 427.00 C136.57,427.00 139.48,427.10 147.00,422.66 C148.70,421.66 150.00,420.04 150.00,418.94 C150.00,415.99 148.86,416.55 143.79,422.00 C139.29,426.85 138.97,427.00 133.57,427.00 C126.47,427.00 126.23,425.29 132.50,419.45 C134.98,417.14 137.00,414.75 137.00,414.13 C137.00,412.22 134.04,412.88 131.93,415.25 C130.83,416.49 127.95,419.64 125.52,422.25 L 121.12 427.00 L 105.81 426.99 L 90.50 426.99 L 88.80 423.99 C87.65,421.98 86.31,421.00 84.70,421.00 C82.24,421.00 79.00,423.75 79.00,425.83 C79.00,426.70 69.02,427.00 39.50,427.00 L 0.00 427.00 L 0.00 213.50 ZM 66.97 413.73 C68.33,412.78 70.44,412.00 71.67,412.00 C72.89,412.00 74.53,411.08 75.32,409.96 C76.25,408.62 78.49,407.64 81.83,407.12 C87.27,406.26 90.37,404.42 89.64,402.49 C88.28,398.95 98.16,384.68 102.78,383.52 C106.37,382.62 108.00,381.17 108.00,378.88 C108.00,377.57 107.28,377.00 105.65,377.00 C104.35,377.00 102.05,375.85 100.54,374.45 C96.04,370.28 94.97,371.66 96.56,379.59 C97.36,383.55 94.12,387.53 88.54,389.43 C84.38,390.86 81.00,395.42 81.00,399.63 C81.00,402.19 75.10,407.68 71.35,408.63 C69.48,409.10 68.48,408.82 67.82,407.64 C66.85,405.91 64.00,405.36 64.00,406.90 C64.00,407.39 62.47,410.07 60.61,412.84 C58.74,415.61 57.41,418.08 57.65,418.31 C58.15,418.82 63.40,416.24 66.97,413.73 ZM 99.00 409.46 C99.00,408.74 99.68,407.47 100.50,406.64 C101.64,405.50 101.77,404.52 101.03,402.57 C99.78,399.28 97.69,399.30 95.07,402.63 C92.72,405.62 92.17,413.51 94.25,414.32 C95.67,414.86 99.00,411.46 99.00,409.46 ZM 253.09 410.09 C253.75,407.89 255.51,405.26 257.13,404.06 C258.93,402.73 260.00,401.03 260.00,399.50 C260.00,397.79 260.91,396.58 263.00,395.50 C264.76,394.59 266.00,393.15 266.00,392.02 C266.00,389.65 267.89,385.09 269.85,382.74 C270.66,381.78 271.83,379.98 272.44,378.74 C273.14,377.35 274.53,376.46 276.13,376.40 C279.73,376.26 280.55,375.57 282.86,370.74 C286.58,362.99 287.33,360.55 288.06,354.00 C289.10,344.68 290.59,339.66 294.53,332.24 C298.58,324.61 298.90,322.80 295.69,325.83 C292.81,328.53 291.82,328.55 290.19,325.93 C288.36,323.00 287.04,323.87 284.95,329.37 C283.21,333.96 283.31,336.79 285.25,338.10 C287.01,339.29 284.73,346.45 281.69,349.29 C279.42,351.41 278.97,352.37 279.85,353.25 C281.75,355.15 281.11,358.27 277.97,362.43 C276.34,364.59 275.00,366.87 275.00,367.50 C275.00,368.13 273.50,370.41 271.67,372.57 C269.83,374.73 267.80,378.05 267.15,379.94 C266.51,381.82 265.24,384.19 264.33,385.19 C262.10,387.66 259.00,387.55 259.00,385.00 C259.00,383.90 258.56,383.00 258.03,383.00 C257.50,383.00 257.29,383.60 257.58,384.34 C258.30,386.21 255.23,388.63 253.87,387.27 C252.75,386.15 255.31,380.00 256.90,380.00 C257.37,380.00 258.30,378.54 258.97,376.75 C259.64,374.96 261.04,371.65 262.09,369.39 C263.14,367.13 264.00,364.30 264.00,363.10 C264.00,360.81 264.88,359.80 274.27,351.32 C277.74,348.19 280.00,345.33 280.00,344.07 C280.00,341.88 278.56,341.29 277.47,343.04 C277.12,343.61 275.08,345.19 272.94,346.54 C270.81,347.88 268.30,350.45 267.38,352.24 C265.33,356.21 258.30,362.85 255.34,363.61 C254.16,363.92 252.21,363.65 251.01,363.01 C249.82,362.37 248.25,362.07 247.52,362.35 C245.61,363.09 244.59,370.37 246.07,372.74 C246.88,374.04 246.96,375.24 246.32,376.38 C245.80,377.32 245.67,380.43 246.04,383.29 C246.40,386.15 246.29,389.99 245.78,391.83 C245.27,393.68 245.13,395.90 245.46,396.77 C245.80,397.64 245.31,400.79 244.37,403.76 L 242.67 409.17 L 245.59 411.55 C249.86,415.04 251.72,414.68 253.09,410.09 ZM 151.14 405.32 C154.31,403.92 155.24,402.80 156.58,398.75 C158.51,392.93 157.60,391.36 154.63,395.42 C153.46,397.02 151.04,399.88 149.25,401.75 C144.22,407.04 144.79,408.12 151.14,405.32 ZM 217.71 381.25 C218.68,379.74 220.14,377.98 220.95,377.35 C222.18,376.40 221.79,375.94 218.60,374.60 C216.48,373.72 214.45,373.00 214.08,373.00 C213.71,373.00 213.35,375.48 213.28,378.50 C213.13,384.81 214.78,385.83 217.71,381.25 ZM 231.00 377.52 C231.00,375.59 228.46,373.89 226.63,374.59 C224.60,375.37 224.59,375.89 226.59,378.10 C228.30,379.98 231.00,379.62 231.00,377.52 ZM 116.71 361.79 C117.94,359.20 120.76,355.37 122.97,353.29 C127.19,349.32 128.09,347.00 125.41,347.00 C124.06,347.00 123.92,346.19 124.51,341.91 C125.17,337.15 125.09,336.88 123.36,337.82 C117.87,340.77 110.47,353.40 109.45,361.54 L 108.75 367.16 L 111.62 366.83 C113.92,366.56 114.92,365.58 116.71,361.79 ZM 167.54 303.93 C168.63,302.17 167.48,301.92 165.43,303.48 C163.74,304.76 163.71,304.94 165.19,304.97 C166.12,304.99 167.18,304.52 167.54,303.93 ZM 179.67 254.33 C178.52,253.18 178.94,252.00 180.50,252.00 C181.32,252.00 182.00,252.68 182.00,253.50 C182.00,255.06 180.82,255.48 179.67,254.33 ZM 340.00 236.50 C340.00,235.56 339.05,235.00 337.47,235.00 C333.98,235.00 333.27,232.40 335.98,229.52 C337.99,227.38 338.14,226.52 337.50,221.01 C336.89,215.78 336.43,214.73 334.39,213.96 C331.36,212.81 331.38,211.90 334.51,209.18 C337.88,206.25 339.61,206.44 340.81,209.87 C341.57,212.08 342.92,213.13 346.58,214.37 C352.03,216.23 355.60,216.45 356.50,215.00 C357.86,212.81 360.00,214.03 360.00,217.00 C360.00,218.65 360.45,220.00 361.00,220.00 C361.55,220.00 362.00,220.94 362.00,222.09 C362.00,224.01 361.60,224.14 357.25,223.56 C352.77,222.97 352.24,223.15 348.01,226.84 C344.03,230.30 343.56,231.15 343.84,234.37 C344.11,237.48 343.85,238.00 342.08,238.00 C340.90,238.00 340.00,237.35 340.00,236.50 ZM 347.48 221.04 C347.80,220.51 346.70,219.38 345.03,218.52 C342.04,216.97 342.00,216.98 342.00,219.47 C342.00,220.86 342.48,222.00 343.06,222.00 C343.64,222.00 343.81,222.49 343.44,223.10 C342.95,223.90 343.33,223.89 344.82,223.09 C345.96,222.49 347.15,221.56 347.48,221.04 ZM 467.52 82.75 C466.00,80.59 466.10,80.36 470.22,76.76 C474.80,72.77 476.63,72.44 478.39,75.30 C479.32,76.81 478.82,77.73 475.29,81.05 C470.41,85.63 469.67,85.79 467.52,82.75 ZM 621.86 55.28 C619.85,55.07 617.42,54.02 616.45,52.95 C615.48,51.88 613.75,50.99 612.60,50.97 C611.44,50.95 609.63,50.28 608.56,49.47 C607.49,48.66 605.63,48.00 604.43,48.00 C602.00,48.00 600.40,46.46 599.86,43.61 C599.66,42.57 598.71,41.33 597.75,40.86 C596.79,40.39 595.21,39.61 594.25,39.14 C593.29,38.67 592.36,37.60 592.20,36.75 C592.03,35.91 590.19,33.37 588.10,31.11 C585.04,27.79 583.63,27.00 580.78,27.00 C576.47,27.00 575.25,25.67 574.82,20.49 C574.55,17.11 574.01,16.27 571.27,15.00 C569.50,14.18 568.03,12.77 568.02,11.87 C567.99,9.12 565.16,7.42 562.93,8.81 C561.88,9.46 560.60,10.00 560.08,10.00 C558.35,10.00 557.83,6.00 559.17,2.98 L 560.49 0.00 L 586.74 0.00 L 613.00 0.00 L 613.02 3.75 C613.03,8.21 613.81,9.64 616.50,10.15 C617.97,10.43 618.65,11.58 619.08,14.51 C619.99,20.73 624.13,28.44 626.75,28.82 C627.98,28.99 630.28,30.44 631.87,32.03 C634.57,34.73 635.22,36.46 636.66,44.75 C636.97,46.59 637.82,48.00 638.61,48.00 C639.57,48.00 640.00,49.25 640.00,52.00 L 640.00 56.00 L 632.75 55.83 C628.76,55.74 623.86,55.49 621.86,55.28 Z" fill="rgb(231,230,232)"/>
</g>
</svg>